<svg xmlns="http://www.w3.org/2000/svg" viewBox="0 0 35.16 11.57"><defs><style>.cls-1b{fill:#14ffec;}.cls-2b{fill:rgb(196, 190, 190);}</style></defs><g id="Layer_2" data-name="Layer 2"><g id="Øàð_3" data-name="Øàð 3"><path class="cls-1b" d="M13.76,7.68H24.62a3.77,3.77,0,0,1,7.24,0h3.3a.28.28,0,0,0,0-.08c0-2.28-4.09-4.52-11.31-4.06,0,0-2.69-1.23-6.39-2.79C12.75-1.22,5.8,1.14,0,2.44.27,3.7.33,6,1.31,7.67H4a3.78,3.78,0,0,1,7.24,0h1.32a9.3,9.3,0,0,1-1-4.84h0V1.25a13.65,13.65,0,0,1,1.78-.12,10,10,0,0,1,3.72.71L21,3.53c-3.53-.09-6.21-.32-8.42-.58C12.53,4.28,12.6,6.3,13.76,7.68Zm-3.45-5c-1.39-.18-2.59-.35-3.75-.46,1.28-.28,2.54-.57,3.75-.78Z"/><path class="cls-2b" d="M24.46,8.76V10h-13V8.76s0-.08,0-.12H24.47A.41.41,0,0,0,24.46,8.76ZM3.87,8.64H1.81A3.7,3.7,0,0,0,3.87,9.85V8.76S3.87,8.68,3.87,8.64ZM32,8.66s0,.06,0,.1V9.92c1.9-.17,2.61-.76,2.93-1.26Zm-21.56.1A2.81,2.81,0,1,1,7.64,6,2.81,2.81,0,0,1,10.45,8.76Zm-1.25,0a1.56,1.56,0,1,0-1.56,1.56A1.56,1.56,0,0,0,9.2,8.76Zm21.85,0A2.81,2.81,0,1,1,28.24,6,2.81,2.81,0,0,1,31.05,8.76Zm-1.26,0a1.56,1.56,0,1,0-1.55,1.56A1.55,1.55,0,0,0,29.79,8.76Zm4.13-2.32a6.52,6.52,0,0,0-3-1.61,3.54,3.54,0,0,0,3,1.62Z"/></g></g></svg>