<svg xmlns="http://www.w3.org/2000/svg" viewBox="0 0 38.75 16.21"><defs><style>.cls-1c{fill:#14ffec;}.cls-2c{fill:rgb(196, 190, 190);}</style></defs><g id="Layer_2" data-name="Layer 2"><g id="Øàð_3" data-name="Øàð 3"><path class="cls-1c" d="M27.31,7.12a11.25,11.25,0,0,1,4.84,1.54,13.68,13.68,0,0,0,5.73,1.79V12a2.41,2.41,0,0,1-2.41,2.41H34.05c0-.08,0-.15,0-.22a3,3,0,0,0-6.08,0,1.7,1.7,0,0,0,0,.22H15.85a1.7,1.7,0,0,0,0-.22,3,3,0,1,0-6.08,0c0,.07,0,.14,0,.22h-1c0-.08,0-.15,0-.22a3,3,0,0,0-6.08,0,1.7,1.7,0,0,0,0,.22H2.41A2.41,2.41,0,0,1,0,12V7.13ZM38.21,5A.51.51,0,0,0,38.5,5a.55.55,0,0,0,.16-.75C37.91,3.06,37,1.84,35.45,1.84H33.19a.54.54,0,1,0,0,1.08h2.26c.9,0,1.53.69,2.3,1.88a.54.54,0,0,0,.46.24Z"/><path class="cls-2c" d="M7.83,14.14a2.08,2.08,0,1,1-2.07-2.08A2.07,2.07,0,0,1,7.83,14.14Zm-2.07.91a.92.92,0,1,0-.92-.91.92.92,0,0,0,.92.91Zm9.14-.91a2.08,2.08,0,1,1-2.08-2.08A2.08,2.08,0,0,1,14.9,14.14Zm-2.08.91a.92.92,0,1,0-.91-.91.92.92,0,0,0,.91.91Zm20.27-.91A2.08,2.08,0,1,1,31,12.06,2.07,2.07,0,0,1,33.09,14.14ZM31,15.05a.92.92,0,1,0-.92-.91.91.91,0,0,0,.92.91ZM26.56,6.16h.75a12.13,12.13,0,0,1,5.26,1.63,13,13,0,0,0,5.31,1.69v-.1A15.82,15.82,0,0,0,35.63,4a.74.74,0,0,0-.38-.11H33.19a1.5,1.5,0,0,1-.38-3A4.23,4.23,0,0,0,30.44,0H26.56ZM0,6.06v.1H25.6V0H3.27C1,0,.46,3.48,0,6.06Z"/><path class="cls-2c" d="M35.44,11.93c0-.43.8-.95,1.76-.94v1a1.84,1.84,0,0,1-.05.41C36.12,12.36,35.43,12.35,35.44,11.93Z"/></g></g></svg>