<svg xmlns="http://www.w3.org/2000/svg" viewBox="0 0 31.57 15.56"><defs><style>.cls-1d{fill:rgb(196, 190, 190);}.cls-2d{fill:#14ffec;}</style></defs><g id="Layer_2" data-name="Layer 2"><g id="Øàð_3" data-name="Øàð 3"><path class="cls-1d" d="M6.52,1.82l-.65-.16L6,1.33A1.69,1.69,0,0,1,7.51,0H14A1.6,1.6,0,0,1,15.6,1.35l.05.34-.67.1-.05-.33A.91.91,0,0,0,14,.68H7.51c-.69,0-.91.81-.91.81l-.08.33Z"/><path class="cls-2d" d="M13.53,8.72H22.3a4.29,4.29,0,0,1,4.79,0H30.3L30,6.81c-.29-1.21-.9-1.55-2.53-1.77-2.19-.29-5.93-.85-5.93-.85-1.95-1.45-3.56-3-6.8-3H6.63c-3,0-6.18,3.08-6.18,4.44V8.72H3.83A4.26,4.26,0,0,1,5.8,8V4.55H2.32a6.26,6.26,0,0,1,4.26-2.4H8.29L6.77,4.55V8a4.07,4.07,0,0,1,1.84.69h4V4.55H8.11l1.53-2.4h4.61c2.73,0,3.93.92,5.84,2.4H13.53Z"/><path class="cls-1d" d="M27.52,7.4l-.29-.59c-.18-.36.1-.48.24-.48H29A1.61,1.61,0,0,1,29.3,7L29.49,8H28.7A1.12,1.12,0,0,1,27.52,7.4ZM2.59,7.06,1.8,8H1.13V6.33H2.31C2.63,6.33,2.9,6.67,2.59,7.06Z"/><path class="cls-1d" d="M24.69,15.56A3.3,3.3,0,1,1,28,12.26a3.3,3.3,0,0,1-3.31,3.3Zm0-5.12a1.82,1.82,0,1,0,1.83,1.82,1.82,1.82,0,0,0-1.83-1.82Zm-.62,1.82a.63.63,0,1,0,.63-.63A.63.63,0,0,0,24.07,12.26ZM6.22,15.56a3.3,3.3,0,1,1,3.31-3.3,3.3,3.3,0,0,1-3.31,3.3Zm0-5.12a1.82,1.82,0,1,0,1.83,1.82,1.82,1.82,0,0,0-1.83-1.82ZM5.6,12.26a.63.63,0,1,0,.62-.63A.63.63,0,0,0,5.6,12.26ZM21.29,9.68H9.62a4.23,4.23,0,0,1,.88,2.58V13h9.93v-.73A4.29,4.29,0,0,1,21.29,9.68Zm-18.47,0H.28a1.35,1.35,0,0,0-.28.79v1c0,1,.7,1.11,2,1.46v-.67A4.29,4.29,0,0,1,2.82,9.68Zm28.54.66a1.09,1.09,0,0,0-.55-.66H28.09A4.23,4.23,0,0,1,29,12.26V13h1c1.2,0,1.79-.49,1.61-1.66Z"/></g></g></svg>