<svg xmlns="http://www.w3.org/2000/svg" viewBox="0 0 33.9 15.05"><defs><style>.cls-1e{fill:#14ffec;}.cls-2e{fill:rgb(196, 190, 190);}</style></defs><g id="Layer_2" data-name="Layer 2"><g id="Øàð_3" data-name="Øàð 3"><path class="cls-1e" d="M1,3.82H11.57V8.11H8.69a4.26,4.26,0,0,0-4.46,0H.4v-.9C.4,6.5.26,4.7,1,3.82ZM25,8.11H12.52V3.91A15.61,15.61,0,0,1,13.07,0h5.34c3.24,0,4.93,1.83,6.8,3.48,0,0,2.82.44,5.06.85,1.62.29,2.32.6,2.54,1.76l.36,2H29.49a4.28,4.28,0,0,0-4.47,0ZM16.7,1.26H14.08a15,15,0,0,0-.3,2.59H16.7ZM18,3.85h5.78c-1.56-1.39-2.94-2.59-5.33-2.59H18Z"/><path class="cls-2e" d="M27.25,15.05a3.31,3.31,0,1,1,3.31-3.3,3.3,3.3,0,0,1-3.31,3.3Zm0-5.13a1.83,1.83,0,1,0,1.83,1.83,1.83,1.83,0,0,0-1.83-1.83Zm-.63,1.83a.64.64,0,0,0,.63.63.63.63,0,0,0,.63-.63.63.63,0,0,0-.63-.63A.63.63,0,0,0,26.62,11.75Zm2.77-5.38a3.21,3.21,0,0,0,2.28.49h.59l-.12-.63a1,1,0,0,0-.58-.84H29.11c-.33,0-.39.23-.18.46A3.58,3.58,0,0,0,29.39,6.37ZM2,7.47c0-.16,0-.69,0-1.15s.1-1.11-.52-1.11H1.14a5.53,5.53,0,0,0-.07.7V7.47Zm4.44,7.58a3.31,3.31,0,1,1,3.3-3.3,3.3,3.3,0,0,1-3.3,3.3Zm0-5.13a1.83,1.83,0,1,0,1.82,1.83A1.82,1.82,0,0,0,6.46,9.92Zm-.63,1.83a.63.63,0,1,0,.63-.63A.63.63,0,0,0,5.83,11.75ZM3.13,9.08H.36A.82.82,0,0,0,0,9.76v1c0,.93.81,1,2.17,1.38v-.34A4.23,4.23,0,0,1,3.13,9.08Zm27.45,0a4.23,4.23,0,0,1,.94,2.67v.33L33,11.65a1.05,1.05,0,0,0,.85-1.23c0-.18,0-.62,0-.62a.91.91,0,0,0-.34-.72Zm-6.66,0H9.79a4.23,4.23,0,0,1,.94,2.67v.34H23v-.33A4.23,4.23,0,0,1,23.92,9.08Z"/></g></g></svg>