<svg xmlns="http://www.w3.org/2000/svg" viewBox="0 0 35.41 15.27"><defs><style>.cls-1g{fill:#14ffec;}.cls-2g{fill:rgb(196, 190, 190);}</style></defs><g id="Layer_2" data-name="Layer 2"><g id="Øàð_3" data-name="Øàð 3"><path class="cls-1g" d="M20.09,6.13H4.84L3.62,4.93V3.47H19.88C19.94,4.24,20.09,6.13,20.09,6.13ZM.47,10V3.18C.47,2,.55.59,1.42,0H20c3.11,0,4.4.57,6.82,2.69.85.75,2.17,1.87,2.93,2.54A8.37,8.37,0,0,0,33.39,7.3,2.12,2.12,0,0,1,35,9.48V10ZM20.77,2.5H2.89c-.24.45-.23.9-.23,2.83L4.44,7.1H21.13S20.82,3,20.77,2.5ZM25.9,3.58c-1.17-1-1.67-1.08-3.85-1.08l.24,3.16s1.32,1.58,5.43,1.58h2.41S26.9,4.47,25.9,3.58Z"/><path class="cls-2g" d="M34.33,9.33a1.35,1.35,0,0,0-.53-1.06,5.92,5.92,0,0,0-2.11-.69,2.86,2.86,0,0,1,1,1.38Z"/><path class="cls-2g" d="M1.14,5h.24l.45.46V8.64s0,.35-.38.35h-.3Z"/><path class="cls-2g" d="M29.73,15.27a2.37,2.37,0,1,1,2.36-2.36,2.36,2.36,0,0,1-2.36,2.36Zm0-1.26a1.11,1.11,0,1,0-1.11-1.1A1.11,1.11,0,0,0,29.73,14Zm-19.41-.7a2.69,2.69,0,0,0,0-.4,3.34,3.34,0,0,0-.66-2H27.06a3.34,3.34,0,0,0-.66,2c0,.13,0,.4,0,.4ZM0,11.19V12.8l3.71.48c0-.12,0-.25,0-.37a3.33,3.33,0,0,1,.65-2H.17Zm33.06,2.08c2.39-.21,2.35-1.52,2.35-1.52v-.82h-3a3.33,3.33,0,0,1,.65,2Zm-26,2a2.37,2.37,0,1,1,2.36-2.36A2.36,2.36,0,0,1,7,15.27ZM7,14a1.11,1.11,0,1,0-1.11-1.1A1.11,1.11,0,0,0,7,14Z"/></g></g></svg>